PathFileType	4	(X/Y/Z)	\\Move.snu.ac.kr\motion\Animal\091204_091205_Bird\091205_bird\Project 2\Capture day 2\Session 1\pigeon_027.trc
DataRate	CameraRate	NumFrames	NumMarkers	Units	OrigDataRate	OrigDataStartFrame	OrigNumFrames
240.0	240.0	8	14	mm	240.0	40	2723
Frame#	Time	14MarkersBird:Head			14MarkersBird:C_back			14MarkersBird:Spine			14MarkersBird:L-shoulder			14MarkersBird:L-elbow			14MarkersBird:L-wrist			14MarkersBird:L-hand			14MarkersBird:R-shoulder			14MarkersBird:R-elbow			14MarkersBird:R-Wrist			14MarkersBird:R-hand			14MarkersBird:C_Tail			14MarkersBird:L-Tale			14MarkersBird:R-Tale			
		X1	Y1	Z1	X2	Y2	Z2	X3	Y3	Z3	X4	Y4	Z4	X5	Y5	Z5	X6	Y6	Z6	X7	Y7	Z7	X8	Y8	Z8	X9	Y9	Z9	X10	Y10	Z10	X11	Y11	Z11	X12	Y12	Z12	X13	Y13	Z13	X14	Y14	Z14	

1453	6.050	-1047.31287	1421.92737	331.75357	-1098.06824	1391.93311	309.91760	-1140.07739	1365.37451	286.90295	-1061.25024	1397.94946	298.23038	-1105.98499	1408.29932	298.37247	-1085.96814	1446.67065	282.49326	-1104.72534	1451.20972	260.64395	-1083.92334	1400.97595	338.07928	-1110.35522	1409.27161	312.97696	-1118.83105	1442.91016	338.23346	-1155.15662	1445.21680	349.36438	-1186.65869	1254.32739	248.40825	-1121.40930	1315.20605	194.99004	-1186.48767	1276.94507	354.92499	
1454	6.054	-1046.07532	1426.55505	333.64951	-1095.94104	1394.89478	310.81274	-1136.98291	1368.31177	285.96680	-1059.48889	1402.30432	300.40433	-1104.26086	1414.26331	303.08926	-1084.14783	1453.60645	286.63690	-1106.64185	1463.15259	270.39865	-1082.57739	1403.80286	339.23416	-1103.61121	1414.44287	313.02762	-1114.79553	1449.85986	334.12766	-1152.43701	1458.28394	336.66199	-1183.60535	1258.52185	244.40497	-1115.85815	1320.99438	193.42149	-1185.48376	1281.20874	354.35547	
1455	6.058	-1044.94006	1431.08447	335.52042	-1093.89795	1397.84399	311.71884	-1133.95923	1370.94128	284.92648	-1057.93811	1406.53247	302.39679	-1100.68738	1420.09216	306.93170	-1080.72827	1459.50305	289.07776	-1104.90234	1473.04443	278.38950	-1081.36975	1406.52966	340.59412	-1098.94348	1419.47302	315.22974	-1110.78381	1455.56763	333.31976	-1147.04968	1469.74988	327.92343	-1181.64307	1262.96826	240.93004	-1111.39587	1326.21130	191.99608	-1184.59204	1284.73010	352.86362	
1456	6.063	-1043.87781	1435.46924	337.38925	-1091.90869	1400.81177	312.63580	-1131.01929	1373.29663	283.96609	-1056.41858	1410.63953	304.13071	-1095.41467	1425.65747	309.36407	-1075.87476	1464.18823	289.40787	-1099.55078	1481.15894	282.63635	-1080.31018	1409.15735	342.16507	-1096.45752	1423.43396	321.09634	-1108.43958	1459.69409	336.21417	-1141.67932	1479.31396	325.43704	-1180.26807	1267.62048	237.99698	-1107.84167	1330.98218	190.70857	-1183.95569	1287.63428	350.24490	
1457	6.067	-1042.85510	1439.68958	339.25262	-1089.94336	1403.82959	313.56345	-1128.13867	1375.53296	283.37344	-1054.68591	1414.65051	305.61493	-1089.64429	1430.72168	310.03290	-1069.69629	1467.46399	287.71146	-1090.80566	1487.68982	282.18237	-1079.35388	1411.64124	343.92996	-1095.45483	1426.63953	327.26123	-1108.74817	1461.81665	342.34509	-1138.92151	1486.07922	330.14127	-1178.93420	1272.48560	235.45538	-1104.78906	1335.51831	189.57719	-1183.48340	1290.13293	346.53134	
1458	6.071	-1041.85242	1443.75647	341.10513	-1087.97205	1406.92786	314.50168	-1125.25598	1377.95776	283.24097	-1052.50720	1418.55713	306.96014	-1084.06799	1434.93408	308.66705	-1062.14136	1469.22388	284.58456	-1078.92090	1492.32166	277.53748	-1078.39709	1413.92639	345.81683	-1095.58838	1429.40564	331.73218	-1111.40698	1461.52795	350.62466	-1139.87317	1488.74109	341.07120	-1177.26367	1277.63403	233.04170	-1101.79810	1340.03308	188.63499	-1182.90967	1292.43567	341.97986	
1459	6.075	-1040.86243	1447.70215	342.95416	-1085.96436	1410.13831	315.45035	-1122.36536	1380.92175	283.37482	-1049.76440	1422.29102	308.34494	-1078.38416	1438.19202	305.57556	-1053.08032	1469.46997	281.01706	-1064.16174	1494.34985	270.57535	-1077.32288	1415.98584	347.76797	-1096.51538	1431.49329	334.78833	-1115.00061	1458.70837	359.93820	-1143.49768	1486.31067	356.06805	-1175.12268	1283.16638	230.46306	-1098.55273	1344.71777	187.92226	-1181.96228	1294.71460	337.01096	
1460	6.079	-1039.86719	1451.55176	344.81595	-1083.89038	1413.49146	316.40930	-1119.57043	1384.65039	283.52997	-1046.49878	1425.77173	309.92679	-1071.96411	1440.78101	301.82657	-1042.48743	1468.19507	278.12228	-1046.98254	1493.17822	263.82794	-1076.04614	1417.82593	349.80008	-1097.89001	1432.81860	337.52686	-1117.78650	1453.61389	369.56076	-1147.25928	1478.66858	373.09592	-1172.54565	1289.16040	227.50296	-1094.89990	1349.74475	187.45909	-1180.49780	1297.11462	332.09167	
